HIERARCHY
ROOT Hips
{
	OFFSET -3.958830 18.904000 13.208200
	CHANNELS 6 Xposition Yposition Zposition Zrotation Yrotation Xrotation 
	JOINT LHipJoint
	{
		OFFSET 0.000000 0.000000 0.000000
		CHANNELS 3 Zrotation Yrotation Xrotation
		JOINT LeftUpLeg
		{
			OFFSET 1.800000 -1.400000 0.085000
			CHANNELS 3 Zrotation Yrotation Xrotation
			JOINT LeftLeg
			{
				OFFSET 2.215000 -6.000000 0.000000
				CHANNELS 3 Zrotation Yrotation Xrotation
				JOINT LeftFoot
				{
					OFFSET 2.500000 -6.900000 0.000000
					CHANNELS 3 Zrotation Yrotation Xrotation
					JOINT LeftToeBase
					{
						OFFSET 0.200000 -0.500000 1.950000
						CHANNELS 3 Zrotation Yrotation Xrotation
						End Site
						{
							OFFSET 0.000000 0.000000 0.000000
						}
					}
				}
			}
		}
	}
	JOINT RHipJoint
	{
		OFFSET 0.000000 0.000000 0.000000
		CHANNELS 3 Zrotation Yrotation Xrotation
		JOINT RightUpLeg
		{
			OFFSET -1.800000 -1.400000 0.085000
			CHANNELS 3 Zrotation Yrotation Xrotation
			JOINT RightLeg
			{
				OFFSET -2.215000 -6.000000 0.000000
				CHANNELS 3 Zrotation Yrotation Xrotation
				JOINT RightFoot
				{
					OFFSET -2.500000 -6.900000 0.000000
					CHANNELS 3 Zrotation Yrotation Xrotation
					JOINT RightToeBase
					{
						OFFSET -0.200000 -0.500000 1.950000
						CHANNELS 3 Zrotation Yrotation Xrotation
						End Site
						{
							OFFSET 0.000000 0.000000 0.000000
						}
					}
				}
			}
		}
	}
	JOINT LowerBack
	{
		OFFSET 0.000000 0.000000 0.000000
		CHANNELS 3 Zrotation Yrotation Xrotation
		JOINT Spine
		{
			OFFSET -0.087000 1.940000 -0.288900
			CHANNELS 3 Zrotation Yrotation Xrotation
			JOINT Spine1
			{
				OFFSET 0.000000 1.950000 0.060000
				CHANNELS 3 Zrotation Yrotation Xrotation
				JOINT Neck
				{
					OFFSET 0.000000 0.000000 0.000000
					CHANNELS 3 Zrotation Yrotation Xrotation
					JOINT Neck1
					{
						OFFSET 0.000000 1.600000 0.340000
						CHANNELS 3 Zrotation Yrotation Xrotation
						JOINT Head
						{
							OFFSET 0.000000 1.667000 -0.240000
							CHANNELS 3 Zrotation Yrotation Xrotation
							End Site
							{
								OFFSET 0.000000 0.000000 0.000000
							}
						}
					}
				}
				JOINT LeftShoulder
				{
					OFFSET 0.000000 0.000000 0.000000
					CHANNELS 3 Zrotation Yrotation Xrotation
					JOINT LeftArm
					{
						OFFSET 2.700000 1.550000 -0.730000
						CHANNELS 3 Zrotation Yrotation Xrotation
						JOINT LeftForeArm
						{
							OFFSET 5.450000 0.000000 0.000000
							CHANNELS 3 Zrotation Yrotation Xrotation
							JOINT LeftHand
							{
								OFFSET 3.450000 0.000000 0.000000
								CHANNELS 3 Zrotation Yrotation Xrotation
								JOINT LeftHandIndex1
								{
									OFFSET 0.750000 0.000000 0.000000
									CHANNELS 3 Zrotation Yrotation Xrotation
									End Site
									{
										OFFSET 0.000000 0.000000 0.000000
									}
								}
							}
						}
					}
				}
				JOINT RightShoulder
				{
					OFFSET 0.000000 0.000000 0.000000
					CHANNELS 3 Zrotation Yrotation Xrotation
					JOINT RightArm
					{
						OFFSET -2.700000 1.550000 -0.730000
						CHANNELS 3 Zrotation Yrotation Xrotation
						JOINT RightForeArm
						{
							OFFSET -5.450000 0.000000 0.000000
							CHANNELS 3 Zrotation Yrotation Xrotation
							JOINT RightHand
							{
								OFFSET -3.450000 0.000000 0.000000
								CHANNELS 3 Zrotation Yrotation Xrotation
								JOINT RightHandIndex1
								{
									OFFSET -0.750000 0.000000 0.000000
									CHANNELS 3 Zrotation Yrotation Xrotation
									End Site
									{
										OFFSET 0.000000 0.000000 0.000000
									}
								}
							}
						}
					}
				}
			}
		}
	}
}
MOTION
Frames: 12
Frame Time: 0.016667
1.545690 17.184520 -1.076020 -0.456858 15.953720 0.711250 -15.405775 13.369329 3.191821 -1.100158 0.579959 5.720415 -7.757861 5.542774 1.540120 -0.358624 5.231557 3.127803 0.395300 -0.123220 0.366870 18.398289 -8.985338 3.304150 16.157110 4.217299 -28.368493 -4.001939 -2.605011 19.294174 0.037785 -2.211323 3.832654 0.073820 0.391980 0.194780 -3.609234 -4.646417 -7.541173 16.134263 -15.474600 10.558308 -8.954398 -14.370350 7.719771 1.833884 -3.242971 -8.734408 -8.288010 4.504075 27.601491 -6.288440 5.418620 -7.748390 -7.892428 -3.531246 1.468699 -24.091549 -12.068019 -4.072052 33.618509 -46.152755 -14.172507 -3.762022 2.734903 0.602950 0.303680 -0.259100 0.205970 4.050100 -0.175071 6.303255 47.313304 -9.641559 -16.543578 12.024809 55.366012 3.137793 1.404857 -1.964625 -0.404610 0.258700 0.023820 -0.396750 
1.563580 17.179900 -1.049350 -0.333692 15.158857 0.746872 -15.397372 13.373674 3.196548 -1.396306 0.675940 5.766612 -7.829061 5.610445 1.905163 -0.342187 5.223487 3.127066 0.403940 -0.105650 0.359650 18.404429 -9.012688 3.276724 15.782294 4.069994 -27.161067 -3.072639 -2.644827 17.566827 0.046395 -2.109508 3.882113 0.074410 0.388820 0.196240 -3.621732 -4.619235 -7.530752 16.236595 -15.353652 10.508933 -9.181266 -14.219450 7.930207 1.843147 -3.481538 -8.973114 -8.724707 4.794099 27.643529 -5.955520 5.374030 -8.047020 -7.940166 -3.953762 1.551729 -23.023238 -11.913498 -4.007053 32.326872 -44.375627 -13.054532 -3.763252 2.758433 0.603280 0.296150 -0.249180 0.214650 4.048326 0.487989 6.606954 46.103197 -10.238574 -16.451428 13.489160 56.112154 3.793501 1.398729 -1.982736 -0.391510 0.259550 0.017910 -0.386430 
1.597860 17.151330 -0.983040 -0.004755 13.992975 1.585830 -15.399720 13.321133 3.157330 -1.859702 0.730762 5.307015 -8.392777 5.736379 2.480779 -0.315870 5.232582 3.138084 0.414100 -0.067880 0.321950 18.422571 -9.006126 3.229718 15.166246 3.993355 -25.482746 -1.599147 -2.522131 14.044564 0.096590 -1.994398 3.946515 0.108040 0.439850 0.205070 -3.621002 -4.546506 -7.416088 16.694389 -15.156068 8.769952 -9.561799 -14.125040 8.603335 1.684603 -4.081130 -9.103486 -9.491857 5.343389 26.209360 -5.677750 5.354270 -6.257270 -7.740071 -4.052781 1.576194 -21.565298 -11.937904 -3.365334 29.001874 -41.203988 -10.725207 -3.820422 2.852152 0.523880 0.346800 -0.289000 0.249180 4.132961 1.134331 6.867401 42.743220 -11.137480 -15.380628 17.127170 57.652545 5.533414 1.376279 -2.108534 -0.375690 0.252400 0.003250 -0.347990 
1.633490 17.123390 -0.893820 0.251582 11.994580 2.180916 -15.394298 13.258424 3.116826 -2.254218 0.777066 4.939133 -9.140210 5.960391 3.389593 -0.291518 5.283272 3.157927 0.406410 -0.042420 0.283470 18.444532 -9.022307 3.194872 14.512173 3.851279 -23.243091 0.130665 -2.464138 10.672027 0.119827 -1.990770 3.988250 0.141830 0.513790 0.177930 -3.631388 -4.420067 -7.318583 17.007213 -14.600170 7.224766 -9.685257 -13.667585 9.264204 1.512435 -4.738862 -9.243309 -10.448599 6.255395 25.250423 -5.115740 5.549550 -4.776540 -8.240875 -4.347216 1.579591 -19.551997 -11.378641 -2.843789 24.626642 -38.936061 -8.401071 -3.862887 2.877059 0.463570 0.392940 -0.330640 0.288540 4.982207 2.134188 7.194220 37.842947 -12.496737 -13.862205 22.416896 59.303371 8.201370 1.371788 -2.189732 -0.397360 0.300720 -0.011730 -0.310670 
1.662190 17.101470 -0.801500 0.980016 9.472200 2.272906 -15.378775 13.230263 3.122081 -2.797345 0.836918 4.883878 -10.174839 6.323106 4.774594 -0.265015 5.401758 3.126176 0.408590 -0.034010 0.252290 18.462112 -9.085966 3.124122 13.387844 3.419758 -20.835525 1.574279 -2.554901 8.514848 0.102804 -2.095012 3.977516 0.154370 0.548660 0.159640 -3.655603 -4.327155 -7.244042 16.814034 -14.032568 6.468992 -9.976198 -13.056852 9.642049 1.237813 -5.914682 -9.607338 -12.593654 7.233352 24.858580 -3.958460 5.122870 -4.282340 -8.872365 -4.674631 1.786656 -17.510873 -9.745680 -2.508427 19.430274 -37.262822 -6.202142 -3.861921 2.911689 0.453410 0.394880 -0.352680 0.308500 6.180559 3.643109 7.620905 32.820528 -13.752040 -12.298035 28.019465 60.321637 11.156294 1.388701 -2.217370 -0.407330 0.331150 -0.006890 -0.290770 
1.690070 17.090300 -0.694970 1.219437 6.477713 2.241231 -15.354741 13.160238 3.100962 -2.483643 0.613273 4.625209 -12.021436 6.888395 6.425483 -0.232667 5.644292 3.048768 0.396970 -0.052690 0.249070 18.490090 -9.148775 3.090358 12.773589 3.084942 -18.508414 2.560385 -2.675828 7.008591 0.068912 -2.248757 3.938461 0.150650 0.575530 0.161030 -3.703396 -4.135528 -7.174614 17.177997 -13.281905 5.418338 -10.169727 -12.265477 10.247424 1.264101 -6.865480 -9.831129 -14.351892 8.058438 24.700435 -4.214060 5.379400 -4.092690 -10.539018 -5.324049 1.960075 -15.627268 -8.060211 -2.196422 14.633910 -34.693690 -4.283548 -3.897414 2.910163 0.452880 0.409350 -0.363780 0.305220 7.803899 5.291741 8.049875 27.265826 -14.841187 -10.592717 33.533611 61.114258 14.124825 1.427632 -2.208154 -0.419650 0.355220 0.010060 -0.290390 
1.709870 17.108370 -0.584240 1.511952 3.008210 1.664147 -15.300995 13.056612 3.108658 -1.972990 0.273825 4.511278 -14.486059 7.667434 8.316796 -0.173685 5.960704 2.921310 0.427590 -0.024470 0.266850 18.542283 -9.257655 3.041827 12.250835 2.618727 -16.150950 2.971798 -2.872163 6.768542 -0.000783 -2.429819 3.870099 0.164260 0.549290 0.154560 -3.833364 -3.841615 -7.115447 17.941569 -12.475228 4.932833 -10.990658 -11.291910 10.620518 1.288066 -8.067055 -10.031660 -16.875095 9.076538 25.115728 -3.822450 5.325830 -4.766210 -12.422183 -5.804178 2.047736 -13.798480 -6.527303 -1.802558 9.690406 -31.806638 -2.586078 -3.873678 2.922463 0.483680 0.373920 -0.341250 0.305670 9.617407 6.851761 8.479596 22.150948 -15.616851 -8.827990 40.503359 61.958275 17.985199 1.503957 -2.191860 -0.413780 0.363380 0.003250 -0.293790 
1.724270 17.142660 -0.504790 2.315748 1.286310 0.893018 -15.276543 13.077786 3.137593 -0.729197 -0.602066 3.295444 -17.607435 9.034134 12.159820 -0.057885 6.495565 2.724987 0.438360 -0.008500 0.271550 18.541669 -9.341591 2.953981 10.934288 2.131039 -14.620018 3.314004 -3.092242 7.169535 -0.048189 -2.547198 3.836143 0.165370 0.529660 0.124870 -3.855810 -3.839392 -7.101942 17.501602 -12.219825 5.292774 -11.175215 -10.835404 10.478015 1.264409 -9.079243 -10.393962 -19.355934 10.019118 25.616034 -3.242420 5.224780 -5.167760 -13.724227 -6.186148 2.300546 -13.575238 -5.435768 -1.583047 6.446991 -29.492680 -1.673183 -3.830409 2.902929 0.512490 0.332040 -0.320010 0.311070 11.009121 8.141556 8.826039 18.775525 -15.865954 -7.668501 45.879516 62.090493 20.886869 1.584167 -2.149366 -0.417860 0.388330 -0.008560 -0.289030 
1.728810 17.186970 -0.411240 2.811330 0.165906 -0.422838 -15.251471 13.046160 3.222950 1.913661 -1.841981 2.498806 -21.659106 10.922519 15.871002 0.171632 7.302036 2.421872 0.486160 0.040090 0.325540 18.544528 -9.378037 2.870904 9.832877 1.599461 -12.537399 3.514584 -3.313079 7.374742 -0.144617 -2.668327 3.789575 0.152880 0.448560 0.118080 -3.884394 -3.845642 -7.164819 17.289156 -12.107892 5.970510 -11.562891 -10.520653 10.324980 1.481813 -9.742444 -10.847374 -21.612022 10.764055 27.303825 -3.162480 5.268550 -6.384030 -14.664126 -6.504616 2.620108 -14.465103 -4.672937 -1.495834 3.607510 -27.312347 -1.027905 -3.742719 2.893576 0.561000 0.252480 -0.244880 0.314180 11.521930 9.083431 9.118899 17.695966 -15.277043 -7.196419 50.082720 61.705547 23.026036 1.673896 -2.097987 -0.375290 0.376020 -0.053270 -0.287820 
1.729680 17.220260 -0.316020 3.442219 -1.013305 -1.493569 -15.241462 12.933691 3.376322 4.769800 -3.240610 0.957352 -26.091825 13.300553 19.790968 0.419087 8.310176 2.047956 0.502010 0.060950 0.328390 18.542245 -9.388044 2.751934 8.821745 1.203638 -11.219254 3.408821 -3.532840 8.339472 -0.193597 -2.791458 3.749508 0.144810 0.414150 0.119110 -3.885939 -3.798803 -7.213098 16.828776 -11.778889 6.179921 -11.967256 -9.980851 10.384945 1.619259 -10.219692 -11.198618 -23.389038 11.479337 28.474792 -2.886480 5.109920 -6.634080 -15.051920 -6.536390 2.845016 -16.357180 -4.403989 -1.348493 1.483013 -25.321347 -0.675673 -3.715338 2.884036 0.577780 0.218880 -0.215940 0.311530 11.646416 9.664623 9.306300 17.740222 -14.404994 -6.936438 53.921148 61.042427 24.770692 1.723569 -2.058103 -0.347390 0.364650 -0.058720 -0.282070 
1.716770 17.236640 -0.226330 4.335698 -5.184850 -2.133309 -15.227039 12.722172 3.637261 7.409991 -3.713292 -0.484072 -31.988213 16.040565 21.452075 0.682192 9.303448 1.701173 0.496550 0.046110 0.326080 18.547192 -9.425757 2.643650 8.209624 1.033878 -10.623023 2.478602 -3.596746 9.928072 -0.212423 -2.855555 3.731691 0.127490 0.402250 0.114080 -3.905337 -3.527947 -7.312319 16.169606 -10.000144 6.483766 -12.051233 -8.018974 10.071093 1.768916 -10.465051 -11.538952 -24.726868 12.297405 29.977105 -2.295390 5.015070 -6.534600 -14.966415 -6.149077 2.901639 -18.987155 -4.359144 -1.134161 -0.286933 -23.458442 -0.472822 -3.717312 2.836557 0.605210 0.196840 -0.203620 0.300840 11.276838 10.075727 9.464187 19.180002 -13.106140 -6.946848 56.505610 60.779644 26.084533 1.765924 -1.988213 -0.345550 0.370920 -0.045260 -0.287010 
1.716610 17.238720 -0.126200 4.704753 -8.374709 -2.808426 -15.203934 12.489538 3.883278 10.652989 -3.950952 -2.068528 -37.335935 19.102859 23.263590 0.958820 10.246088 1.394679 0.483920 0.033430 0.316210 18.571142 -9.442776 2.550319 7.827023 0.782225 -9.677680 1.621332 -3.607752 10.968650 -0.245673 -2.921862 3.719272 0.108240 0.391480 0.086690 -3.981238 -3.234470 -7.390406 16.718793 -8.646608 6.485496 -12.448607 -6.464015 9.790861 2.064837 -10.780430 -12.133802 -26.511819 12.838205 31.629698 -1.671960 4.378150 -6.352360 -14.278061 -5.884158 3.107816 -23.081423 -4.874306 -0.898928 -0.998669 -21.099745 -0.529098 -3.700204 2.759653 0.634750 0.159210 -0.182980 0.304820 10.023034 10.567347 9.812639 21.414402 -11.943908 -7.158398 59.184674 60.370228 27.271156 1.814813 -1.917331 -0.352200 0.398920 -0.046460 -0.278700 
